<svg width="14" height="14" viewBox="0 0 14 14" fill="none" xmlns="http://www.w3.org/2000/svg">
<path d="M1.68742 13.6667C1.29853 13.6667 0.975752 13.5383 0.719085 13.2817C0.461863 13.0245 0.333252 12.7014 0.333252 12.3125V1.68751C0.333252 1.29862 0.461863 0.975843 0.719085 0.719177C0.975752 0.461954 1.29853 0.333344 1.68742 0.333344H12.3124C12.7013 0.333344 13.0244 0.461954 13.2816 0.719177C13.5383 0.975843 13.6666 1.29862 13.6666 1.68751V12.3125C13.6666 12.7014 13.5383 13.0245 13.2816 13.2817C13.0244 13.5383 12.7013 13.6667 12.3124 13.6667H1.68742ZM1.68742 12.8333H12.3124C12.4513 12.8333 12.5727 12.7811 12.6766 12.6767C12.781 12.5728 12.8333 12.4514 12.8333 12.3125V1.68751C12.8333 1.54862 12.781 1.42723 12.6766 1.32334C12.5727 1.2189 12.4513 1.16668 12.3124 1.16668H1.68742C1.54853 1.16668 1.42714 1.2189 1.32325 1.32334C1.21881 1.42723 1.16659 1.54862 1.16659 1.68751V12.3125C1.16659 12.4514 1.21881 12.5728 1.32325 12.6767C1.42714 12.7811 1.54853 12.8333 1.68742 12.8333Z" fill="#DBDEE6"/>
</svg>
