<svg width="17" height="17" viewBox="0 0 17 17" fill="none" xmlns="http://www.w3.org/2000/svg">
<path d="M7.09998 10.2462L4.77688 7.92308C4.63842 7.78461 4.46439 7.71378 4.25478 7.71058C4.04518 7.70736 3.86794 7.77819 3.72308 7.92308C3.57819 8.06794 3.50575 8.24358 3.50575 8.44998C3.50575 8.65638 3.57819 8.83201 3.72308 8.97688L6.4673 11.7211C6.64807 11.9019 6.85896 11.9923 7.09998 11.9923C7.34099 11.9923 7.55188 11.9019 7.73265 11.7211L13.2961 6.15765C13.4346 6.0192 13.5054 5.84517 13.5086 5.63555C13.5118 5.42593 13.441 5.24869 13.2961 5.10383C13.1513 4.95896 12.9756 4.88653 12.7692 4.88653C12.5628 4.88653 12.3872 4.95896 12.2423 5.10383L7.09998 10.2462ZM1.8077 17C1.30257 17 0.875 16.825 0.525 16.475C0.175 16.125 0 15.6974 0 15.1923V1.8077C0 1.30257 0.175 0.875 0.525 0.525C0.875 0.175 1.30257 0 1.8077 0H15.1923C15.6974 0 16.125 0.175 16.475 0.525C16.825 0.875 17 1.30257 17 1.8077V15.1923C17 15.6974 16.825 16.125 16.475 16.475C16.125 16.825 15.6974 17 15.1923 17H1.8077Z" fill="#1C1B1F"/>
</svg>
