<svg width="12" height="13" viewBox="0 0 12 13" fill="none" xmlns="http://www.w3.org/2000/svg">
<path d="M5.99996 9.6875L3.04163 6.75L3.64579 6.14583L5.58329 8.08333V0.875H6.41663V8.08333L8.35413 6.14583L8.95829 6.75L5.99996 9.6875ZM1.52079 12.8333C1.1319 12.8333 0.809126 12.705 0.552459 12.4483C0.295237 12.1911 0.166626 11.8681 0.166626 11.4792V9.5H0.999959V11.4792C0.999959 11.6181 1.05218 11.7394 1.15663 11.8433C1.26051 11.9478 1.3819 12 1.52079 12H10.4791C10.618 12 10.7394 11.9478 10.8433 11.8433C10.9477 11.7394 11 11.6181 11 11.4792V9.5H11.8333V11.4792C11.8333 11.8681 11.705 12.1911 11.4483 12.4483C11.1911 12.705 10.868 12.8333 10.4791 12.8333H1.52079Z" fill="#131316"/>
</svg>
