<svg width="12" height="7" viewBox="0 0 12 7" fill="none" xmlns="http://www.w3.org/2000/svg">
<path d="M5.99954 6.02112C5.87902 6.02112 5.76685 6.00189 5.66301 5.96342C5.55916 5.92496 5.46045 5.85893 5.36686 5.76535L0.872639 1.27112C0.734172 1.13267 0.663339 0.958642 0.660139 0.749025C0.656922 0.539408 0.727756 0.362166 0.872639 0.217299C1.01751 0.0724322 1.19314 0 1.39954 0C1.60594 0 1.78157 0.0724322 1.92644 0.217299L5.99954 4.2904L10.0726 0.217299C10.2111 0.0788489 10.3851 0.00801556 10.5947 0.00479889C10.8043 0.00159889 10.9816 0.0724322 11.1264 0.217299C11.2713 0.362166 11.3438 0.537808 11.3438 0.744225C11.3438 0.950625 11.2713 1.12626 11.1264 1.27112L6.63221 5.76535C6.53863 5.85893 6.43991 5.92496 6.33606 5.96342C6.23223 6.00189 6.12006 6.02112 5.99954 6.02112Z" fill="#131316"/>
</svg>
