<svg width="142" height="38" viewBox="0 0 142 38" fill="none" xmlns="http://www.w3.org/2000/svg">
<path d="M8.08301 26.3031C6.719 26.3031 5.50655 25.9916 4.44565 25.3685C3.4016 24.7286 2.58488 23.8698 1.99549 22.7921C1.40611 21.6975 1.11141 20.4766 1.11141 19.1294C1.11141 17.7486 1.40611 16.5277 1.99549 15.4668C2.60172 14.4059 3.41002 13.5724 4.4204 12.9661C5.43077 12.3431 6.57586 12.0316 7.85567 12.0316C8.88289 12.0316 9.80065 12.2084 10.6089 12.562C11.4172 12.9156 12.0993 13.404 12.655 14.027C13.2107 14.6333 13.6317 15.3321 13.9179 16.1236C14.221 16.915 14.3726 17.757 14.3726 18.6495C14.3726 18.8684 14.3642 19.0958 14.3473 19.3315C14.3305 19.5673 14.2968 19.7862 14.2463 19.9883H3.3595V17.7149H12.6297L11.2657 18.7506C11.4341 17.9254 11.3752 17.1929 11.0889 16.553C10.8194 15.8962 10.3985 15.3826 9.82591 15.0122C9.2702 14.6248 8.61346 14.4312 7.85567 14.4312C7.09789 14.4312 6.42431 14.6248 5.83492 15.0122C5.24554 15.3826 4.79087 15.9215 4.47091 16.6288C4.15096 17.3192 4.02466 18.1612 4.09202 19.1547C4.00782 20.0809 4.13412 20.8892 4.47091 21.5796C4.82455 22.27 5.31289 22.8089 5.93596 23.1962C6.57586 23.5835 7.29997 23.7772 8.10827 23.7772C8.93341 23.7772 9.63225 23.5919 10.2048 23.2215C10.7942 22.851 11.2573 22.3711 11.5941 21.7817L13.9179 22.9184C13.6485 23.5583 13.2275 24.1392 12.655 24.6613C12.0993 25.1664 11.4257 25.5706 10.6342 25.8737C9.85959 26.16 9.00919 26.3031 8.08301 26.3031ZM36.8963 26.3031C35.5323 26.3031 34.3198 25.9916 33.2589 25.3685C32.2149 24.7286 31.3813 23.8698 30.7583 22.7921C30.152 21.7143 29.8489 20.4935 29.8489 19.1294C29.8489 17.7823 30.152 16.5698 30.7583 15.4921C31.3645 14.4144 32.198 13.5724 33.2589 12.9661C34.3198 12.3431 35.5323 12.0316 36.8963 12.0316C37.8225 12.0316 38.6897 12.1999 39.498 12.5367C40.3063 12.8567 41.0051 13.3029 41.5945 13.8755C42.2008 14.448 42.647 15.1132 42.9333 15.871L40.4326 17.0329C40.1463 16.3256 39.6832 15.7615 39.0433 15.3405C38.4203 14.9027 37.7046 14.6838 36.8963 14.6838C36.1217 14.6838 35.4228 14.8774 34.7998 15.2648C34.1935 15.6352 33.7136 16.1657 33.36 16.8561C33.0063 17.5297 32.8295 18.2959 32.8295 19.1547C32.8295 20.0135 33.0063 20.7881 33.36 21.4786C33.7136 22.1522 34.1935 22.6826 34.7998 23.0699C35.4228 23.4572 36.1217 23.6509 36.8963 23.6509C37.7214 23.6509 38.4371 23.4404 39.0433 23.0194C39.6664 22.5816 40.1295 22.0006 40.4326 21.2765L42.9333 22.4637C42.6638 23.1878 42.226 23.8445 41.6198 24.4339C41.0304 25.0065 40.3316 25.4611 39.5233 25.7979C38.715 26.1347 37.8393 26.3031 36.8963 26.3031ZM45.7231 26V6.87863H48.5774V15.0122L48.1227 14.6585C48.4595 13.7997 48.9984 13.1514 49.7393 12.7136C50.4803 12.2589 51.3391 12.0316 52.3158 12.0316C53.3261 12.0316 54.2186 12.2505 54.9933 12.6883C55.7679 13.1261 56.3741 13.7324 56.8119 14.507C57.2498 15.2816 57.4687 16.1657 57.4687 17.1592V26H54.6396V17.9423C54.6396 17.2518 54.5049 16.6709 54.2355 16.1994C53.9829 15.711 53.6293 15.3405 53.1746 15.0879C52.7199 14.8185 52.1979 14.6838 51.6085 14.6838C51.036 14.6838 50.5139 14.8185 50.0424 15.0879C49.5878 15.3405 49.2257 15.711 48.9563 16.1994C48.7037 16.6877 48.5774 17.2687 48.5774 17.9423V26H45.7231ZM64.6155 26.3031C63.6893 26.3031 62.8726 26.1431 62.1654 25.8232C61.4749 25.4864 60.9361 25.0317 60.5488 24.4592C60.1614 23.8698 59.9678 23.1794 59.9678 22.3879C59.9678 21.647 60.1278 20.9818 60.4477 20.3924C60.7845 19.803 61.2981 19.3063 61.9885 18.9021C62.679 18.498 63.5462 18.2117 64.5903 18.0433L69.339 17.2602V19.5083L65.146 20.2409C64.3882 20.3756 63.8325 20.6197 63.4788 20.9734C63.1252 21.3102 62.9484 21.748 62.9484 22.2869C62.9484 22.8089 63.1421 23.2383 63.5294 23.5751C63.9335 23.895 64.4471 24.055 65.0702 24.055C65.8448 24.055 66.5184 23.8866 67.0909 23.5498C67.6803 23.213 68.135 22.7668 68.4549 22.2111C68.7749 21.6385 68.9349 21.0071 68.9349 20.3166V16.8056C68.9349 16.132 68.6823 15.5847 68.1771 15.1637C67.6887 14.7259 67.032 14.507 66.2069 14.507C65.4491 14.507 64.7839 14.709 64.2114 15.1132C63.6557 15.5005 63.2431 16.0057 62.9737 16.6288L60.5993 15.4416C60.8519 14.768 61.2644 14.1786 61.837 13.6734C62.4095 13.1514 63.0747 12.7472 63.8325 12.461C64.6071 12.1747 65.4238 12.0316 66.2826 12.0316C67.3604 12.0316 68.3118 12.2336 69.1369 12.6378C69.9789 13.0419 70.6273 13.6061 71.0819 14.3302C71.5534 15.0374 71.7892 15.8626 71.7892 16.8056V26H69.0612V23.5246L69.6421 23.6004C69.3222 24.1561 68.9096 24.636 68.4044 25.0401C67.9161 25.4443 67.352 25.7558 66.712 25.9747C66.089 26.1937 65.3901 26.3031 64.6155 26.3031ZM75.1266 26V12.3347H77.8546V15.0122L77.5262 14.6585C77.863 13.7997 78.4019 13.1514 79.1428 12.7136C79.8838 12.2589 80.7426 12.0316 81.7193 12.0316C82.7297 12.0316 83.6222 12.2505 84.3968 12.6883C85.1714 13.1261 85.7776 13.7324 86.2155 14.507C86.6533 15.2816 86.8722 16.1741 86.8722 17.1845V26H84.0432V17.9423C84.0432 17.2518 83.9169 16.6709 83.6643 16.1994C83.4117 15.711 83.0496 15.3405 82.5781 15.0879C82.1234 14.8185 81.6014 14.6838 81.012 14.6838C80.4226 14.6838 79.8922 14.8185 79.4207 15.0879C78.966 15.3405 78.6124 15.711 78.3598 16.1994C78.1072 16.6877 77.9809 17.2687 77.9809 17.9423V26H75.1266ZM96.5197 31.5571C95.5262 31.5571 94.6084 31.3971 93.7664 31.0771C92.9245 30.7572 92.2004 30.3109 91.5941 29.7384C90.9879 29.1827 90.5332 28.5259 90.2301 27.7682L92.8571 26.682C93.0929 27.3219 93.5223 27.8524 94.1453 28.2733C94.7852 28.6943 95.5683 28.9048 96.4945 28.9048C97.2186 28.9048 97.8669 28.7617 98.4394 28.4754C99.012 28.206 99.4666 27.8018 99.8034 27.263C100.14 26.7409 100.309 26.1095 100.309 25.3685V22.2869L100.814 22.8678C100.342 23.7435 99.6856 24.4087 98.8436 24.8633C98.0184 25.318 97.0838 25.5453 96.0398 25.5453C94.7768 25.5453 93.6401 25.2506 92.6298 24.6613C91.6194 24.0719 90.8195 23.2636 90.2301 22.2363C89.6576 21.2091 89.3713 20.0556 89.3713 18.7758C89.3713 17.4792 89.6576 16.3256 90.2301 15.3153C90.8195 14.3049 91.611 13.505 92.6045 12.9156C93.598 12.3262 94.7347 12.0316 96.0145 12.0316C97.0586 12.0316 97.9848 12.2589 98.7931 12.7136C99.6182 13.1514 100.292 13.7913 100.814 14.6333L100.435 15.3405V12.3347H103.138V25.3685C103.138 26.5473 102.851 27.5998 102.279 28.5259C101.723 29.469 100.949 30.2099 99.955 30.7488C98.9615 31.2876 97.8164 31.5571 96.5197 31.5571ZM96.3682 22.8931C97.1259 22.8931 97.7995 22.7163 98.3889 22.3626C98.9783 21.9922 99.4414 21.5038 99.7782 20.8976C100.132 20.2745 100.309 19.5757 100.309 18.8011C100.309 18.0264 100.132 17.3276 99.7782 16.7045C99.4246 16.0815 98.953 15.5931 98.3637 15.2395C97.7743 14.869 97.1091 14.6838 96.3682 14.6838C95.5935 14.6838 94.9031 14.869 94.2969 15.2395C93.6907 15.5931 93.2107 16.0815 92.8571 16.7045C92.5203 17.3108 92.3519 18.0096 92.3519 18.8011C92.3519 19.5589 92.5203 20.2493 92.8571 20.8723C93.2107 21.4954 93.6907 21.9922 94.2969 22.3626C94.9031 22.7163 95.5935 22.8931 96.3682 22.8931ZM112.895 26.3031C111.531 26.3031 110.318 25.9916 109.257 25.3685C108.213 24.7286 107.397 23.8698 106.807 22.7921C106.218 21.6975 105.923 20.4766 105.923 19.1294C105.923 17.7486 106.218 16.5277 106.807 15.4668C107.413 14.4059 108.222 13.5724 109.232 12.9661C110.242 12.3431 111.388 12.0316 112.667 12.0316C113.695 12.0316 114.612 12.2084 115.421 12.562C116.229 12.9156 116.911 13.404 117.467 14.027C118.022 14.6333 118.443 15.3321 118.73 16.1236C119.033 16.915 119.184 17.757 119.184 18.6495C119.184 18.8684 119.176 19.0958 119.159 19.3315C119.142 19.5673 119.109 19.7862 119.058 19.9883H108.171V17.7149H117.441L116.077 18.7506C116.246 17.9254 116.187 17.1929 115.901 16.553C115.631 15.8962 115.21 15.3826 114.638 15.0122C114.082 14.6248 113.425 14.4312 112.667 14.4312C111.91 14.4312 111.236 14.6248 110.647 15.0122C110.057 15.3826 109.603 15.9215 109.283 16.6288C108.963 17.3192 108.836 18.1612 108.904 19.1547C108.82 20.0809 108.946 20.8892 109.283 21.5796C109.636 22.27 110.125 22.8089 110.748 23.1962C111.388 23.5835 112.112 23.7772 112.92 23.7772C113.745 23.7772 114.444 23.5919 115.017 23.2215C115.606 22.851 116.069 22.3711 116.406 21.7817L118.73 22.9184C118.46 23.5583 118.039 24.1392 117.467 24.6613C116.911 25.1664 116.237 25.5706 115.446 25.8737C114.671 26.16 113.821 26.3031 112.895 26.3031Z" fill="url(#paint0_linear_480_671)"/>
<path d="M20.2168 19.4939L11 6H17L23.3057 15.1176L26.4286 10.6933H31.5714L26 19.0133L35 32.0267L32.8571 38L22.9745 23.5314L20.4286 27.3333H14.4286L15.2857 26.48L20.2168 19.4939Z" fill="url(#paint1_linear_480_671)"/>
<defs>
<linearGradient id="paint0_linear_480_671" x1="0" y1="16" x2="121" y2="16" gradientUnits="userSpaceOnUse">
<stop offset="0.0677083" stop-color="#A5FECB"/>
<stop offset="0.536458" stop-color="#20BDFF"/>
<stop offset="0.921875" stop-color="#5433FF"/>
</linearGradient>
<linearGradient id="paint1_linear_480_671" x1="37.1429" y1="35.8667" x2="15.8341" y2="8.04159" gradientUnits="userSpaceOnUse">
<stop stop-color="#A5FECB"/>
<stop offset="0.985174" stop-color="#20BDFF"/>
</linearGradient>
</defs>
</svg>
